<?xml version="1.0" encoding="UTF-8"?>
<!DOCTYPE svg PUBLIC "-//W3C//DTD SVG 1.1//EN" "http://www.w3.org/Graphics/SVG/1.1/DTD/svg11.dtd">
<!-- Creator: CorelDRAW 2019 (64-Bit) -->
<svg xmlns="http://www.w3.org/2000/svg" xml:space="preserve" width="8.90822in" height="8.32734in" version="1.1" style="shape-rendering:geometricPrecision; text-rendering:geometricPrecision; image-rendering:optimizeQuality; fill-rule:evenodd; clip-rule:evenodd"
viewBox="0 0 8217.51 7681.66"
 xmlns:xlink="http://www.w3.org/1999/xlink"
 xmlns:xodm="http://www.corel.com/coreldraw/odm/2003">
 <defs>
  <style type="text/css">
   <![CDATA[
    .fil1 {fill:white}
    .fil2 {fill:white}
    .fil0 {fill:#990000;fill-opacity:0.301961}
   ]]>
  </style>
 </defs>
 <g id="Layer_x0020_1">
  <metadata id="CorelCorpID_0Corel-Layer"/>
  <path class="fil0" d="M2050.07 7681.66l4055 0 1635.12 -4096.49 354.61 -894.97 -81.06 -73.53 203.76 -540.72 -304.35 0 0 -729.99 -256.79 0 0 -438.82 -269.97 413.25 0 -355.98 -372.66 570.43 -406.97 -621.9 -48 321.82 -173.3 -264.82 -31.28 376 -299.85 0 0 -1305.25 -144.11 1305.25 -18.61 -373.62 -14.13 296.75 -9.31 50.79 -9.52 41.98 -239.5 362.96c-22.74,-38.97 -48.03,-75.87 -75.78,-110.43l62.96 -1071.42 -279.29 500.73 -0.23 -15.37 -1.34 -29.46 -2.21 -28.89 -3.07 -28.3 -3.9 -27.68 -4.73 -27.04 -5.54 -26.36 -6.34 -25.66 -7.12 -24.93 -7.88 -24.17 -8.63 -23.39 -9.36 -22.58 -10.07 -21.74 -10.78 -20.88 -11.47 -19.99 -12.14 -19.07 -12.8 -18.13 -13.43 -17.16 -14.06 -16.15 -14.68 -15.13 -15.26 -14.07 -15.84 -12.99 -16.41 -11.88 -16.96 -10.75 -17.48 -9.59 -18 -8.39 -18.51 -7.18 -18.99 -5.93 -19.46 -4.66 -19.92 -3.37 -20.36 -2.04 -20.78 -0.69 -20.76 0.66 -20.31 1.97 -19.84 3.25 -19.36 4.51 -18.86 5.74 -18.35 6.95 -17.82 8.14 -17.29 9.31 -16.74 10.44 -16.18 11.57 -15.61 12.66 -15.01 13.73 -1.06 1.09 -620.21 0 -20.57 925.84 -16.18 -44.49 -15.03 -47.68 -13.1 -48.74 -11.15 -49.73 -9.18 -50.66 -7.18 -51.52 -5.16 -52.3 -3.12 -53.02 -1.04 -53.67 -49.12 524.04 -64.3 -978.41 -0.41 109.5 -2.45 28.35 -3.42 27.54 -4.38 26.77 -5.34 26.04 -6.29 25.35 -7.23 24.7 -8.17 24.07 -9.1 23.5 -10.02 22.95 -10.94 22.45 -11.85 21.99 -12.75 21.55 -13.66 21.17 -14.55 20.81 -0.3 0.4 -32.79 -932.6 0 974.48 -15.85 18.42 -18.06 19.78 -18.91 19.62 -19.77 19.48 -20.61 19.4 -21.46 19.35 -22.29 19.34 -23.12 19.36 -23.94 19.42 -24.76 19.52 -25.56 19.66 -26.37 19.84 -18.71 13.81c-33.14,-9.33 -67.73,-16.71 -103.65,-22.03l-28.96 -631.99 -0.78 -11.55 -1.29 -11.25 -1.8 -10.95 -2.3 -10.63 -2.78 -10.32 -3.26 -10 -3.74 -9.67 -4.2 -9.34 -4.66 -9 -5.1 -8.66 -5.55 -8.31 -5.98 -7.96 -6.4 -7.6 -6.82 -7.23 -7.22 -6.87 -7.63 -6.49 -8.02 -6.11 -8.41 -5.72 -8.78 -5.34 -9.14 -4.94 -9.51 -4.54 -9.86 -4.13 -10.21 -3.72 -10.54 -3.3 -10.87 -2.88 -11.19 -2.45 -11.51 -2.02 -11.81 -1.58 -12.1 -1.13 -12.4 -0.69 -12.67 -0.23 -12.73 0.23 -12.57 0.69 -12.43 1.17 -12.31 1.64 -12.19 2.12 -12.1 2.6 -12.02 3.09 -11.95 3.58 -11.9 4.08 -11.86 4.58 -11.85 5.1 -11.84 5.61 -11.85 6.12 -11.87 6.65 -11.91 7.17 -11.96 7.71 -12.03 8.24 -12.11 8.79 -12.21 9.33 -12.33 9.88 -12.45 10.44 -12.59 11 -12.75 11.56 -12.93 12.13 -13.11 12.71 -13.32 13.29 -13.53 13.87 -13.76 14.46 -14.01 15.06 -14.27 15.66 -14.55 16.26 -14.84 16.87 -380.88 -316.92c-15.27,139.47 -5.59,328.07 -5.59,475.69l-96.97 0 -99.08 -876.92 0 366.07 -2.35 -21.85 -327.18 357.68 -7.8 -9.24 -7.83 -8.98 -7.86 -8.74 -7.88 -8.49 -7.92 -8.23 -7.96 -7.97 -8 -7.71 -8.05 -7.45 -8.1 -7.17 -8.16 -6.91 -8.22 -6.63 -8.29 -6.36 -8.36 -6.08 -8.43 -5.79 -8.52 -5.5 -8.6 -5.22 -8.69 -4.92 -8.78 -4.63 -8.88 -4.33 -8.98 -4.03 -9.09 -3.72 -9.2 -3.41 -9.32 -3.11 -9.44 -2.79 -9.57 -2.47 -9.7 -2.15 -9.83 -1.83 -9.98 -1.5 -10.11 -1.18 -10.27 -0.84 -10.42 -0.51 -10.58 -0.17 -12.83 0.28 -12.5 0.82 -12.17 1.36 -11.83 1.9 -11.48 2.42 -11.13 2.94 -10.78 3.45 -10.42 3.96 -10.05 4.46 -9.68 4.95 -9.31 5.44 -8.92 5.92 -8.54 6.39 -8.15 6.85 -7.75 7.31 -7.35 7.77 -6.95 8.22 -6.53 8.65 -6.12 9.09 -5.69 9.52 -5.27 9.94 -4.84 10.35 -4.4 10.75 -3.96 11.16 -3.51 11.55 -3.06 11.94 -2.6 12.32 -2.14 12.7 -1.67 13.06 -1.2 13.42 -0.73 13.78 -0.24 14.12 0 141.41 55.78 377.08 -55.78 0 0 289.65 -45.2 -58.05 -82.13 0 -183.27 -235.45 -28.56 0 -36.7 -189.21 -153.61 -197.28 0 197.28 38.46 189.21 -306.86 0 0 418.75 -91.88 0 -197.95 -847.09 -196.05 0 162.88 663.78 -162.88 0 697.87 1969.95 124.1 24.75 -16.94 -1.62 -16.52 -2.07 -16.11 -2.49 -15.7 -2.92 -15.3 -3.32 -14.9 -3.73 -14.51 -4.11 -14.13 -4.49 -13.76 -4.86 -13.39 -5.22 -13.02 -5.57 -12.66 -5.91 -12.32 -6.23 -11.97 -6.55 -11.63 -6.85 -11.29 -7.15 -10.97 -7.43 -10.65 -7.71 -10.34 -7.98 -10.03 -8.23 -9.72 -8.48 -9.43 -8.71 -9.14 -8.93 -8.86 -9.14 -8.58 -9.35 -8.31 -9.54 -8.05 -9.72 73.88 -14.7 -262.52 13.08 1744.94 4275.48z"/>
  <path class="fil1" d="M720.54 3605.44l12.59 -0.12 12.46 -0.37 12.31 -0.61 12.17 -0.86 12.02 -1.1 11.87 -1.34 11.73 -1.58 11.57 -1.82 11.42 -2.06 11.26 -2.3 11.11 -2.52 10.95 -2.76 10.79 -2.99 10.63 -3.23 10.46 -3.46 10.3 -3.69 10.13 -3.91 9.95 -4.14 9.79 -4.37 9.61 -4.59 9.44 -4.81 9.26 -5.03 9.08 -5.25 8.9 -5.47 8.71 -5.69 8.53 -5.9 8.35 -6.12 8.15 -6.33 7.96 -6.55 7.77 -6.76 7.58 -6.97 7.38 -7.18 7.32 -7.52 7.07 -7.67 6.83 -7.82 6.58 -7.98 6.34 -8.15 6.09 -8.31 5.85 -8.47 5.61 -8.65 5.37 -8.83 5.13 -9 4.89 -9.18 4.66 -9.37 4.42 -9.56 4.19 -9.75 3.95 -9.95 3.72 -10.15 3.48 -10.35 3.25 -10.56 3.03 -10.76 2.79 -10.99 2.57 -11.2 2.33 -11.41 2.11 -11.64 1.88 -11.86 1.66 -12.1 1.43 -12.33 1.22 -12.57 0.98 -12.81 0.77 -13.05 0.55 -13.3 0.32 -13.55 0.11 -13.8 0 -749.75 -325.91 0 0 748.07 -0.15 10.13 -0.46 9.82 -0.76 9.5 -1.05 9.18 -1.34 8.87 -1.63 8.54 -1.91 8.23 -2.18 7.91 -2.47 7.59 -2.73 7.26 -3 6.95 -3.26 6.63 -3.52 6.31 -3.78 5.99 -4.02 5.67 -4.28 5.35 -4.51 5.02 -4.75 4.7 -4.99 4.38 -5.22 4.06 -5.44 3.73 -5.67 3.41 -5.88 3.09 -6.1 2.76 -6.31 2.44 -6.51 2.11 -6.72 1.79 -6.91 1.47 -7.11 1.14 -7.3 0.82 -7.49 0.49 -7.67 0.17 -6.75 -0.12 -6.65 -0.35 -6.55 -0.58 -6.45 -0.82 -6.36 -1.05 -6.27 -1.27 -6.18 -1.5 -6.1 -1.72 -6.03 -1.94 -5.95 -2.16 -5.89 -2.37 -5.83 -2.59 -5.76 -2.8 -5.7 -3.01 -5.65 -3.21 -5.6 -3.42 -5.56 -3.62 -5.52 -3.82 -5.48 -4.02 -5.45 -4.22 -5.42 -4.41 -5.4 -4.61 -5.38 -4.79 -5.36 -4.98 -5.35 -5.17 -5.34 -5.35 -5.33 -5.53 -5.34 -5.71 -5.34 -5.89 -5.35 -6.06 -5.36 -6.24 -5.37 -6.41 -211.08 199.26 7.89 10.52 8.15 10.36 8.42 10.18 8.69 9.99 8.98 9.78 9.27 9.57 9.57 9.35 9.87 9.11 10.18 8.87 10.5 8.61 10.82 8.35 11.14 8.07 11.48 7.78 11.82 7.49 12.17 7.17 12.53 6.85 12.89 6.52 13.25 6.18 13.63 5.83 14.01 5.46 14.4 5.08 14.79 4.7 15.19 4.31 15.59 3.9 16.01 3.48 16.43 3.05 16.85 2.61 17.29 2.16 17.73 1.7 18.17 1.23 18.62 0.74 19.08 0.25zm429.76 -20.27l344.48 0 84.43 -211.07 455.93 0 86.12 211.07 351.24 0 -503.22 -1190.49 -315.77 0 -503.21 1190.49zm525.16 -466.06l133.4 -336.04 131.72 336.04 -265.12 0zm1336.55 489.7l24.22 -0.33 23.58 -0.98 22.95 -1.61 22.33 -2.24 21.74 -2.85 21.15 -3.44 20.57 -4.03 20.01 -4.59 19.47 -5.16 18.93 -5.7 18.41 -6.22 17.91 -6.75 17.41 -7.25 16.93 -7.74 16.47 -8.21 16.01 -8.68 15.57 -9.13 15.15 -9.57 14.73 -9.99 14.34 -10.4 13.94 -10.8 13.57 -11.18 13.21 -11.55 12.87 -11.9 12.53 -12.25 12.21 -12.58 11.9 -12.9 11.61 -13.21 11.33 -13.49 11.06 -13.77 10.8 -14.03 10.57 -14.29 -246.54 -175.62 -6.65 7.99 -6.68 7.82 -6.7 7.63 -6.74 7.46 -6.78 7.26 -6.84 7.07 -6.9 6.87 -6.98 6.66 -7.05 6.45 -7.15 6.24 -7.25 6.01 -7.35 5.79 -7.47 5.56 -7.6 5.32 -7.73 5.08 -7.88 4.84 -8.03 4.58 -8.19 4.33 -8.36 4.07 -8.55 3.79 -8.73 3.52 -8.93 3.24 -9.14 2.96 -9.36 2.67 -9.58 2.37 -9.82 2.08 -10.06 1.77 -10.31 1.46 -10.58 1.14 -10.84 0.82 -11.12 0.5 -11.41 0.17 -15.37 -0.4 -15.07 -1.19 -14.75 -1.97 -14.43 -2.73 -14.1 -3.46 -13.75 -4.19 -13.39 -4.88 -13.02 -5.57 -12.63 -6.24 -12.23 -6.88 -11.82 -7.51 -11.4 -8.12 -10.96 -8.72 -10.52 -9.29 -10.05 -9.85 -9.58 -10.38 -9.09 -10.9 -8.6 -11.41 -8.09 -11.89 -7.57 -12.35 -7.03 -12.8 -6.49 -13.23 -5.93 -13.63 -5.35 -14.03 -4.77 -14.4 -4.18 -14.76 -3.57 -15.09 -2.95 -15.42 -2.31 -15.71 -1.66 -16 -1.01 -16.26 -0.34 -16.51 0 -3.38 0.34 -16.05 1.01 -15.84 1.66 -15.62 2.31 -15.37 2.95 -15.1 3.57 -14.81 4.18 -14.51 4.77 -14.18 5.35 -13.83 5.93 -13.47 6.49 -13.08 7.03 -12.68 7.57 -12.25 8.09 -11.81 8.6 -11.34 9.09 -10.86 9.58 -10.34 10.05 -9.83 10.52 -9.28 10.96 -8.72 11.4 -8.13 11.82 -7.53 12.23 -6.91 12.63 -6.26 13.02 -5.6 13.39 -4.92 13.75 -4.22 14.1 -3.49 14.43 -2.75 14.75 -1.99 15.07 -1.21 15.37 -0.41 10.5 0.16 10.3 0.47 10.1 0.77 9.91 1.09 9.71 1.38 9.54 1.68 9.36 1.96 9.18 2.26 9.01 2.54 8.84 2.81 8.68 3.09 8.52 3.36 8.37 3.62 8.22 3.88 8.08 4.14 7.94 4.38 7.82 4.63 7.68 4.88 7.56 5.12 7.44 5.35 7.32 5.59 7.21 5.8 7.1 6.03 7.01 6.24 6.91 6.45 6.81 6.67 6.73 6.87 6.65 7.07 6.57 7.27 6.49 7.46 6.43 7.64 6.36 7.82 246.53 -190.81 -9.96 -13.48 -10.27 -13.22 -10.58 -12.94 -10.89 -12.65 -11.22 -12.35 -11.55 -12.04 -11.88 -11.72 -12.23 -11.39 -12.57 -11.05 -12.93 -10.7 -13.29 -10.34 -13.66 -9.96 -14.03 -9.58 -14.41 -9.18 -14.8 -8.78 -15.2 -8.36 -15.6 -7.94 -16.01 -7.5 -16.42 -7.06 -16.84 -6.59 -17.27 -6.13 -17.7 -5.65 -18.14 -5.16 -18.58 -4.67 -19.04 -4.15 -19.5 -3.64 -19.96 -3.11 -20.44 -2.56 -20.91 -2.02 -21.4 -1.45 -21.88 -0.88 -22.39 -0.3 -33.28 0.78 -32.71 2.34 -32.1 3.84 -31.46 5.32 -30.79 6.76 -30.09 8.16 -29.35 9.53 -28.6 10.86 -27.79 12.16 -26.97 13.42 -26.1 14.64 -25.22 15.83 -24.3 16.98 -23.34 18.1 -22.36 19.18 -21.34 20.23 -20.29 21.23 -19.2 22.21 -18.1 23.15 -16.95 24.05 -15.78 24.92 -14.57 25.75 -13.33 26.54 -12.06 27.3 -10.76 28.02 -9.42 28.71 -8.07 29.36 -6.67 29.97 -5.24 30.55 -3.78 31.1 -2.3 31.6 -0.77 32.07 0 3.38 0.79 32.8 2.35 32.22 3.86 31.6 5.34 30.96 6.79 30.29 8.19 29.58 9.56 28.85 10.89 28.09 12.18 27.29 13.43 26.47 14.65 25.61 15.82 24.73 16.97 23.82 18.07 22.87 19.13 21.9 20.16 20.9 21.15 19.86 22.1 18.79 23.01 17.7 23.89 16.58 24.73 15.42 25.52 14.24 26.29 13.02 27.02 11.79 27.71 10.5 28.36 9.21 28.97 7.87 29.54 6.51 30.08 5.11 30.58 3.69 31.04 2.24 31.46 0.75zm595.24 -23.64l327.6 0 0 -305.64 119.89 -133.4 297.2 439.04 393.45 0 -462.68 -673.77 447.48 -508.27 -388.38 0 -406.96 479.56 0 -479.56 -327.6 0 0 1182.04zm1164.31 0l327.6 0 0 -337.73 162.11 0 27.31 -0.43 26.81 -1.29 26.31 -2.15 25.76 -2.99 25.2 -3.85 24.62 -4.69 24 -5.54 23.36 -6.37 22.69 -7.22 22.01 -8.05 21.3 -8.88 20.56 -9.71 19.8 -10.54 19.02 -11.37 18.2 -12.19 17.37 -13 16.5 -13.83 15.62 -14.64 14.7 -15.45 13.78 -16.26 12.81 -17.07 11.83 -17.86 10.82 -18.66 9.79 -19.46 8.73 -20.26 7.64 -21.05 6.53 -21.83 5.4 -22.61 4.25 -23.41 3.06 -24.18 1.86 -24.96 0.62 -25.73 0 -3.38 -0.56 -24.22 -1.67 -23.58 -2.77 -22.93 -3.85 -22.27 -4.92 -21.6 -5.96 -20.93 -7 -20.24 -8.01 -19.56 -9.02 -18.85 -10.01 -18.15 -10.97 -17.43 -11.93 -16.7 -12.86 -15.97 -13.79 -15.23 -14.7 -14.48 -15.59 -13.72 -16.46 -12.95 -17.32 -12.18 -18.17 -11.4 -18.99 -10.6 -19.81 -9.81 -20.61 -8.99 -21.39 -8.18 -22.15 -7.35 -22.91 -6.52 -23.63 -5.67 -24.35 -4.83 -25.06 -3.97 -25.74 -3.1 -26.41 -2.22 -27.06 -1.35 -27.71 -0.44 -506.59 0 0 1182.04zm327.6 -594.4l0 -312.4 153.66 0 10.94 0.16 10.66 0.47 10.37 0.79 10.09 1.1 9.79 1.41 9.49 1.73 9.2 2.03 8.88 2.34 8.57 2.64 8.25 2.95 7.93 3.26 7.61 3.56 7.28 3.86 6.95 4.17 6.61 4.46 6.27 4.76 5.92 5.06 5.57 5.35 5.22 5.64 4.86 5.94 4.49 6.23 4.13 6.52 3.75 6.81 3.38 7.1 2.99 7.39 2.61 7.67 2.22 7.95 1.83 8.24 1.43 8.53 1.03 8.8 0.62 9.08 0.2 9.36 0 3.37 -0.2 8.61 -0.62 8.42 -1.02 8.22 -1.43 8.02 -1.82 7.81 -2.22 7.59 -2.6 7.38 -2.99 7.15 -3.36 6.92 -3.74 6.68 -4.1 6.45 -4.47 6.2 -4.83 5.94 -5.19 5.69 -5.54 5.43 -5.88 5.16 -6.23 4.89 -6.56 4.61 -6.9 4.33 -7.22 4.04 -7.54 3.75 -7.86 3.45 -8.18 3.15 -8.48 2.84 -8.79 2.52 -9.09 2.2 -9.38 1.88 -9.67 1.55 -9.96 1.21 -10.24 0.88 -10.52 0.53 -10.79 0.18 -155.36 0zm1334.87 618.04l33.92 -0.8 33.35 -2.37 32.75 -3.91 32.12 -5.41 31.45 -6.86 30.75 -8.29 30.02 -9.66 29.25 -11.01 28.44 -12.31 27.61 -13.57 26.74 -14.81 25.84 -15.98 24.9 -17.14 23.94 -18.25 22.93 -19.32 21.9 -20.36 20.83 -21.35 19.73 -22.31 18.59 -23.21 17.43 -24.1 16.23 -24.94 14.99 -25.75 13.72 -26.5 12.42 -27.23 11.08 -27.91 9.71 -28.56 8.31 -29.17 6.87 -29.73 5.4 -30.27 3.9 -30.76 2.36 -31.22 0.8 -31.62 0 -3.38 -0.79 -31.62 -2.34 -31.18 -3.85 -30.71 -5.34 -30.21 -6.8 -29.66 -8.22 -29.08 -9.61 -28.45 -10.96 -27.8 -12.3 -27.1 -13.59 -26.37 -14.85 -25.6 -16.08 -24.79 -17.28 -23.95 -18.44 -23.07 -19.58 -22.15 -20.67 -21.19 -21.74 -20.2 -22.78 -19.16 -23.78 -18.1 -24.75 -16.99 -25.69 -15.85 -26.6 -14.66 -27.48 -13.44 -28.32 -12.19 -29.13 -10.89 -29.91 -9.57 -30.66 -8.19 -31.37 -6.79 -32.05 -5.34 -32.71 -3.86 -33.32 -2.35 -33.91 -0.79 -33.92 0.8 -33.35 2.37 -32.75 3.91 -32.12 5.4 -31.44 6.86 -30.75 8.29 -30.02 9.66 -29.25 11.01 -28.44 12.31 -27.61 13.58 -26.74 14.8 -25.84 15.99 -24.9 17.14 -23.94 18.25 -22.93 19.32 -21.9 20.36 -20.83 21.35 -19.73 22.31 -18.59 23.21 -17.43 24.1 -16.23 24.94 -14.98 25.74 -13.72 26.5 -12.42 27.23 -11.08 27.91 -9.71 28.56 -8.31 29.17 -6.87 29.73 -5.4 30.27 -3.9 30.76 -2.36 31.22 -0.8 31.62 0 3.38 0.78 31.62 2.34 31.18 3.85 30.71 5.35 30.21 6.8 29.66 8.22 29.07 9.61 28.45 10.97 27.8 12.29 27.1 13.59 26.37 14.85 25.6 16.07 24.79 17.28 23.95 18.44 23.07 19.57 22.15 20.67 21.19 21.74 20.19 22.78 19.17 23.79 18.1 24.75 16.99 25.69 15.84 26.6 14.66 27.48 13.44 28.32 12.19 29.14 10.89 29.91 9.56 30.66 8.19 31.37 6.79 32.05 5.34 32.71 3.86 33.33 2.34 33.91 0.8zm3.38 -295.51l-16.62 -0.43 -16.28 -1.28 -15.93 -2.1 -15.56 -2.91 -15.18 -3.68 -14.8 -4.43 -14.4 -5.17 -13.98 -5.88 -13.56 -6.56 -13.11 -7.23 -12.67 -7.87 -12.21 -8.48 -11.74 -9.07 -11.24 -9.64 -10.74 -10.19 -10.24 -10.71 -9.71 -11.21 -9.17 -11.68 -8.63 -12.13 -8.06 -12.57 -7.49 -12.98 -6.9 -13.36 -6.3 -13.72 -5.69 -14.06 -5.07 -14.37 -4.43 -14.66 -3.78 -14.93 -3.13 -15.17 -2.45 -15.4 -1.76 -15.59 -1.07 -15.77 -0.36 -15.92 0 -3.38 0.35 -15.91 1.04 -15.74 1.72 -15.55 2.39 -15.33 3.05 -15.1 3.69 -14.84 4.33 -14.56 4.96 -14.26 5.56 -13.93 6.17 -13.59 6.76 -13.22 7.34 -12.83 7.91 -12.42 8.47 -11.98 9.01 -11.53 9.55 -11.05 10.08 -10.56 10.59 -10.03 11.09 -9.49 11.58 -8.92 12.06 -8.33 12.53 -7.72 12.99 -7.09 13.44 -6.44 13.87 -5.76 14.29 -5.07 14.71 -4.35 15.11 -3.61 15.5 -2.84 15.88 -2.06 16.25 -1.25 16.6 -0.42 16.77 0.43 16.42 1.28 16.06 2.1 15.69 2.91 15.3 3.68 14.9 4.43 14.49 5.17 14.08 5.88 13.64 6.56 13.2 7.23 12.74 7.86 12.27 8.48 11.8 9.07 11.29 9.64 10.79 10.19 10.28 10.71 9.75 11.21 9.2 11.68 8.65 12.13 8.09 12.57 7.5 12.98 6.92 13.36 6.32 13.72 5.7 14.06 5.08 14.37 4.44 14.66 3.8 14.93 3.13 15.17 2.45 15.4 1.77 15.59 1.07 15.77 0.36 15.92 0 3.38 -0.35 15.91 -1.04 15.74 -1.72 15.55 -2.39 15.33 -3.05 15.1 -3.7 14.84 -4.34 14.56 -4.96 14.26 -5.58 13.93 -6.18 13.59 -6.78 13.22 -7.36 12.83 -7.94 12.42 -8.5 11.98 -9.05 11.53 -9.58 11.05 -10.12 10.55 -10.63 10.03 -11.15 9.49 -11.64 8.92 -12.13 8.33 -12.6 7.73 -13.07 7.09 -13.52 6.44 -13.96 5.76 -14.4 5.07 -14.81 4.35 -15.22 3.61 -15.63 2.84 -16.01 2.06 -16.39 1.25 -16.76 0.42zm975.19 271.87l327.59 0 0 -894.97 354.61 0 0 -287.06 -1036.82 0 0 287.06 354.62 0 0 894.97z"/>
  <path class="fil2" d="M196.05 2075.95l558.24 0 0 -494.54 484.27 0 385.07 494.54 494.28 0 0 -494.54 196.05 0 0 -424.66 -196.05 0 0 -239.12 196.05 0 0 -424.67 -196.05 0 0 -452.25 -558.24 0 0 452.25 -485.34 0 -352.03 -452.25 -526.26 0 0 452.25 -196.05 0 0 424.67 196.05 0 0 239.12 -196.05 0 0 424.66 196.05 0 0 494.54zm1363.62 -1158.32l0 198.85 -154.78 -198.85 154.78 0zm-805.38 239.12l0 -197.28 153.61 197.28 -153.61 0zm5300.04 919.2l552.43 0 0 -1163 517.53 790.84 11.63 0 520.44 -796.66 0 1168.81 561.14 0 0 -2035.24 -596.03 0 -485.55 787.93 -485.55 -787.93 -596.04 0 0 2035.24zm-1105.04 40.7l53.87 -1.4 52.57 -4.16 51.24 -6.85 49.88 -9.46 48.49 -12 47.08 -14.47 45.65 -16.88 44.18 -19.2 42.69 -21.46 41.18 -23.64 39.63 -25.76 38.06 -27.8 36.46 -29.77 34.84 -31.68 33.19 -33.5 31.52 -35.26 29.81 -36.95 28.08 -38.56 26.32 -40.11 24.54 -41.58 22.73 -42.98 20.89 -44.31 19.03 -45.57 17.14 -46.76 15.22 -47.87 13.28 -48.92 11.31 -49.89 9.31 -50.79 7.29 -51.62 5.24 -52.38 3.16 -53.07 1.06 -53.68 0 -5.81 -1.05 -53.67 -3.14 -53.02 -5.2 -52.3 -7.23 -51.52 -9.24 -50.66 -11.22 -49.73 -13.18 -48.75 -15.11 -47.67 -17.01 -46.54 -18.89 -45.34 -20.74 -44.07 -22.56 -42.73 -24.37 -41.32 -26.14 -39.84 -27.89 -38.29 -29.61 -36.68 -31.31 -34.99 -32.97 -33.23 -34.61 -31.41 -36.23 -29.52 -37.82 -27.55 -39.39 -25.52 -40.93 -23.41 -42.44 -21.25 -43.93 -19 -45.39 -16.7 -46.82 -14.32 -48.23 -11.87 -49.61 -9.35 -50.96 -6.77 -52.3 -4.11 -53.6 -1.39 -53.62 1.4 -52.34 4.16 -51.04 6.84 -49.71 9.46 -48.36 12 -46.97 14.47 -45.56 16.87 -44.12 19.2 -42.65 21.46 -41.15 23.64 -39.63 25.76 -38.07 27.8 -36.49 29.78 -34.88 31.68 -33.24 33.5 -31.57 35.26 -29.88 36.95 -28.16 38.56 -26.41 40.11 -24.63 41.58 -22.82 42.98 -20.98 44.31 -19.12 45.57 -17.22 46.76 -15.3 47.87 -13.36 48.92 -11.38 49.89 -9.37 50.79 -7.34 51.63 -5.27 52.38 -3.19 53.07 -1.07 53.68 0 5.82 1.04 53.67 3.12 53.02 5.16 52.3 7.18 51.52 9.18 50.66 11.15 49.73 13.1 48.74 15.03 47.68 16.92 46.54 18.8 45.34 20.65 44.07 22.48 42.73 24.28 41.32 26.06 39.84 27.81 38.29 29.53 36.68 31.24 34.99 32.92 33.23 34.57 31.41 36.2 29.52 37.81 27.55 39.39 25.52 40.94 23.42 42.48 21.25 43.98 19 45.47 16.69 46.93 14.32 48.36 11.87 49.77 9.35 51.16 6.77 52.52 4.11 53.86 1.38zm5.82 -500.09l-21.04 -0.68 -20.58 -2.01 -20.11 -3.33 -19.62 -4.61 -19.13 -5.88 -18.62 -7.11 -18.09 -8.32 -17.55 -9.5 -17 -10.66 -16.43 -11.8 -15.85 -12.9 -15.25 -13.98 -14.64 -15.04 -14.01 -16.07 -13.38 -17.08 -12.73 -18.05 -12.07 -19.01 -11.39 -19.93 -10.7 -20.84 -9.99 -21.72 -9.27 -22.57 -8.53 -23.39 -7.79 -24.19 -7.03 -24.97 -6.25 -25.72 -5.47 -26.44 -4.66 -27.14 -3.85 -27.82 -3.01 -28.47 -2.17 -29.08 -1.31 -29.68 -0.44 -30.25 0 -5.81 0.43 -30.24 1.29 -29.63 2.13 -29.01 2.96 -28.36 3.77 -27.68 4.58 -26.98 5.36 -26.27 6.14 -25.53 6.9 -24.76 7.65 -23.97 8.39 -23.15 9.11 -22.32 9.82 -21.46 10.51 -20.57 11.2 -19.67 11.86 -18.74 12.52 -17.78 13.17 -16.8 13.79 -15.8 14.41 -14.78 15.01 -13.73 15.61 -12.66 16.18 -11.57 16.74 -10.44 17.29 -9.31 17.82 -8.14 18.35 -6.95 18.86 -5.74 19.36 -4.51 19.84 -3.25 20.31 -1.97 20.76 -0.66 20.78 0.69 20.36 2.04 19.92 3.37 19.46 4.66 18.99 5.93 18.51 7.18 18 8.39 17.48 9.59 16.96 10.75 16.41 11.88 15.84 12.99 15.26 14.07 14.68 15.13 14.06 16.15 13.43 17.16 12.8 18.13 12.14 19.07 11.47 19.99 10.78 20.88 10.07 21.74 9.36 22.58 8.63 23.39 7.88 24.17 7.12 24.93 6.34 25.66 5.54 26.36 4.73 27.04 3.9 27.68 3.07 28.3 2.21 28.89 1.34 29.46 0.45 29.99 0 5.82 -0.42 29.98 -1.26 29.41 -2.09 28.82 -2.91 28.19 -3.71 27.55 -4.51 26.88 -5.29 26.18 -6.06 25.47 -6.81 24.72 -7.56 23.94 -8.29 23.15 -9.02 22.33 -9.73 21.49 -10.43 20.62 -11.12 19.72 -11.8 18.8 -12.46 17.85 -13.11 16.88 -13.75 15.89 -14.38 14.86 -15 13.82 -15.61 12.75 -16.2 11.65 -16.78 10.54 -17.35 9.39 -17.92 8.22 -18.46 7.02 -19 5.8 -19.52 4.56 -20.03 3.28 -20.53 1.99 -21.02 0.66zm-2647.19 459.39l1610.76 0 0 -459.39 -840.27 0 348.9 -244.23 27.96 -20.31 27.17 -20.05 26.37 -19.84 25.56 -19.66 24.76 -19.52 23.94 -19.42 23.12 -19.36 22.29 -19.34 21.46 -19.35 20.61 -19.4 19.77 -19.48 18.91 -19.62 18.06 -19.78 17.18 -19.98 16.32 -20.22 15.43 -20.5 14.55 -20.81 13.66 -21.17 12.75 -21.55 11.85 -21.99 10.94 -22.45 10.02 -22.95 9.1 -23.5 8.17 -24.07 7.23 -24.7 6.29 -25.35 5.34 -26.04 4.38 -26.77 3.42 -27.54 2.45 -28.35 1.47 -29.2 0.49 -30.07 0 -5.82 -0.89 -35.62 -2.65 -34.9 -4.37 -34.15 -6.08 -33.37 -7.74 -32.57 -9.38 -31.73 -10.98 -30.88 -12.56 -29.99 -14.11 -29.08 -15.62 -28.14 -17.11 -27.18 -18.56 -26.18 -19.99 -25.17 -21.38 -24.12 -22.75 -23.05 -24.08 -21.96 -25.38 -20.83 -26.65 -19.68 -27.9 -18.5 -29.11 -17.3 -30.29 -16.06 -31.44 -14.81 -32.57 -13.52 -33.65 -12.21 -34.72 -10.88 -35.74 -9.52 -36.75 -8.12 -37.72 -6.7 -38.66 -5.26 -39.56 -3.79 -40.44 -2.3 -41.29 -0.77 -36.55 0.45 -35.53 1.35 -34.54 2.24 -33.58 3.13 -32.66 4.01 -31.77 4.9 -30.92 5.77 -30.09 6.64 -29.3 7.5 -28.55 8.36 -27.83 9.22 -27.14 10.06 -26.49 10.91 -25.87 11.76 -25.28 12.59 -24.73 13.42 -24.21 14.24 -23.72 15.07 -23.28 15.88 -22.85 16.7 -22.47 17.5 -22.11 18.3 -21.8 19.11 -21.51 19.89 -21.26 20.68 -21.05 21.46 -20.86 22.24 -20.7 23.02 -20.59 23.79 -20.51 24.55 -20.46 25.31 -20.44 26.06 380.88 316.92 14.84 -16.87 14.55 -16.26 14.27 -15.66 14.01 -15.06 13.76 -14.46 13.53 -13.87 13.32 -13.29 13.11 -12.71 12.93 -12.13 12.75 -11.56 12.59 -11 12.45 -10.44 12.33 -9.88 12.21 -9.33 12.11 -8.79 12.03 -8.24 11.96 -7.71 11.91 -7.17 11.87 -6.65 11.85 -6.12 11.84 -5.61 11.85 -5.1 11.86 -4.58 11.9 -4.08 11.95 -3.58 12.02 -3.09 12.1 -2.6 12.19 -2.12 12.31 -1.64 12.43 -1.17 12.57 -0.69 12.73 -0.23 12.67 0.23 12.4 0.69 12.1 1.13 11.81 1.58 11.51 2.02 11.19 2.45 10.87 2.88 10.54 3.3 10.21 3.72 9.86 4.13 9.51 4.54 9.14 4.94 8.78 5.34 8.41 5.72 8.02 6.11 7.63 6.49 7.22 6.87 6.82 7.23 6.4 7.6 5.98 7.96 5.55 8.31 5.1 8.66 4.66 9 4.2 9.34 3.74 9.67 3.26 10 2.78 10.32 2.3 10.63 1.8 10.95 1.29 11.25 0.78 11.55 0.26 11.85 -0.21 11.37 -0.65 11.23 -1.09 11.11 -1.54 11 -2 10.9 -2.46 10.83 -2.94 10.75 -3.41 10.71 -3.91 10.66 -4.41 10.64 -4.91 10.63 -5.43 10.64 -5.95 10.65 -6.48 10.69 -7.01 10.74 -7.56 10.8 -8.11 10.88 -8.68 10.97 -9.25 11.07 -9.82 11.19 -10.41 11.33 -11 11.47 -11.61 11.64 -12.21 11.81 -12.83 12.01 -13.46 12.21 -14.09 12.43 -14.73 12.67 -15.38 12.92 -16.04 13.18 -16.7 13.46 -17.38 13.75 -761.76 581.5 0 424.49z"/>
 </g>
</svg>
